<svg xmlns="http://www.w3.org/2000/svg" viewBox="0 0 64 64">
  <defs>
    <radialGradient id="bg" cx="50%" cy="40%" r="75%"><stop offset="0%" stop-color="#12244f"/><stop offset="60%" stop-color="#08132e"/><stop offset="100%" stop-color="#03071a"/></radialGradient>
    <radialGradient id="orb" cx="50%" cy="50%" r="50%"><stop offset="0%" stop-color="#2b477e"/><stop offset="34%" stop-color="#5e83d6"/><stop offset="62%" stop-color="#eef4ff"/><stop offset="82%" stop-color="#cfdeff"/><stop offset="100%" stop-color="#4066b8" stop-opacity="0"/></radialGradient>
    <filter id="halo" x="-200%" y="-200%" width="500%" height="500%"><feGaussianBlur stdDeviation="3"/></filter>
    <filter id="edge" x="-60%" y="-60%" width="220%" height="220%"><feGaussianBlur stdDeviation="0.5"/></filter>
  </defs>
  <rect width="64" height="64" rx="15" fill="url(#bg)"/>
  <g transform="translate(11.701 5.0) scale(0.406)">
    <g stroke="#9fc0ff" stroke-width="5" fill="none" stroke-linecap="round" stroke-linejoin="round" opacity="0.5" filter="url(#edge)"><line x1="45.72" y1="10" x2="84.39" y2="32.92"/><line x1="84.39" y1="32.92" x2="61.52" y2="48.5"/><line x1="90" y1="102.55" x2="63.22" y2="101.94"/><line x1="45.72" y1="123.01" x2="90" y2="102.55"/><line x1="84.39" y1="32.92" x2="90" y2="102.55"/><line x1="84.39" y1="32.92" x2="45.72" y2="66.07"/><line x1="45.72" y1="66.07" x2="90" y2="102.55"/><line x1="45.72" y1="10" x2="61.52" y2="48.5"/><line x1="61.52" y1="48.5" x2="13.74" y2="44.56"/><line x1="63.22" y1="101.94" x2="10" y2="102.09"/><line x1="45.72" y1="123.01" x2="63.22" y2="101.94"/><line x1="61.52" y1="48.5" x2="63.22" y2="101.94"/><line x1="61.52" y1="48.5" x2="45.72" y2="66.07"/><line x1="45.72" y1="66.07" x2="63.22" y2="101.94"/><line x1="45.72" y1="10" x2="13.74" y2="44.56"/><line x1="13.74" y1="44.56" x2="23.07" y2="26.09"/><line x1="10" y1="102.09" x2="19.4" y2="102.83"/><line x1="45.72" y1="123.01" x2="10" y2="102.09"/><line x1="13.74" y1="44.56" x2="10" y2="102.09"/><line x1="13.74" y1="44.56" x2="45.72" y2="66.07"/><line x1="45.72" y1="66.07" x2="10" y2="102.09"/><line x1="45.72" y1="10" x2="23.07" y2="26.09"/><line x1="23.07" y1="26.09" x2="84.39" y2="32.92"/><line x1="19.4" y1="102.83" x2="90" y2="102.55"/><line x1="45.72" y1="123.01" x2="19.4" y2="102.83"/><line x1="23.07" y1="26.09" x2="19.4" y2="102.83"/><line x1="23.07" y1="26.09" x2="45.72" y2="66.07"/><line x1="45.72" y1="66.07" x2="19.4" y2="102.83"/></g>
    <g stroke="#eef4ff" stroke-width="2.6" fill="none" stroke-linecap="round" stroke-linejoin="round"><line x1="45.72" y1="10" x2="84.39" y2="32.92"/><line x1="84.39" y1="32.92" x2="61.52" y2="48.5"/><line x1="90" y1="102.55" x2="63.22" y2="101.94"/><line x1="45.72" y1="123.01" x2="90" y2="102.55"/><line x1="84.39" y1="32.92" x2="90" y2="102.55"/><line x1="84.39" y1="32.92" x2="45.72" y2="66.07"/><line x1="45.72" y1="66.07" x2="90" y2="102.55"/><line x1="45.72" y1="10" x2="61.52" y2="48.5"/><line x1="61.52" y1="48.5" x2="13.74" y2="44.56"/><line x1="63.22" y1="101.94" x2="10" y2="102.09"/><line x1="45.72" y1="123.01" x2="63.22" y2="101.94"/><line x1="61.52" y1="48.5" x2="63.22" y2="101.94"/><line x1="61.52" y1="48.5" x2="45.72" y2="66.07"/><line x1="45.72" y1="66.07" x2="63.22" y2="101.94"/><line x1="45.72" y1="10" x2="13.74" y2="44.56"/><line x1="13.74" y1="44.56" x2="23.07" y2="26.09"/><line x1="10" y1="102.09" x2="19.4" y2="102.83"/><line x1="45.72" y1="123.01" x2="10" y2="102.09"/><line x1="13.74" y1="44.56" x2="10" y2="102.09"/><line x1="13.74" y1="44.56" x2="45.72" y2="66.07"/><line x1="45.72" y1="66.07" x2="10" y2="102.09"/><line x1="45.72" y1="10" x2="23.07" y2="26.09"/><line x1="23.07" y1="26.09" x2="84.39" y2="32.92"/><line x1="19.4" y1="102.83" x2="90" y2="102.55"/><line x1="45.72" y1="123.01" x2="19.4" y2="102.83"/><line x1="23.07" y1="26.09" x2="19.4" y2="102.83"/><line x1="23.07" y1="26.09" x2="45.72" y2="66.07"/><line x1="45.72" y1="66.07" x2="19.4" y2="102.83"/></g>
    <circle cx="45.72" cy="66.07" r="18" fill="#6f9bff" opacity="0.55" filter="url(#halo)"/>
    <circle cx="45.72" cy="66.07" r="10" fill="url(#orb)"/>
  </g>
</svg>