<svg xmlns="http://www.w3.org/2000/svg" viewBox="0 0 64 64">
  <rect width="64" height="64" rx="16" fill="#ffffff"/>
  <g transform="translate(15.043 6) scale(0.3912)" fill="none" stroke="#0B0C10" stroke-width="4.6" stroke-linecap="round" stroke-linejoin="round">
    <line x1="8" y1="36.9" x2="8" y2="91.46"/><line x1="53.48" y1="31.23" x2="53.48" y2="85.79"/><line x1="78.69" y1="41.46" x2="78.69" y2="96.02"/><line x1="33.21" y1="47.13" x2="33.21" y2="101.7"/>
    <line x1="8" y1="36.9" x2="53.48" y2="31.23"/><line x1="8" y1="91.46" x2="53.48" y2="85.79"/><line x1="53.48" y1="31.23" x2="78.69" y2="41.46"/><line x1="53.48" y1="85.79" x2="78.69" y2="96.02"/>
    <line x1="78.69" y1="41.46" x2="33.21" y2="47.13"/><line x1="78.69" y1="96.02" x2="33.21" y2="101.7"/><line x1="33.21" y1="47.13" x2="8" y2="36.9"/><line x1="33.21" y1="101.7" x2="8" y2="91.46"/>
    <line x1="43.35" y1="8" x2="8" y2="36.9"/><line x1="43.35" y1="124.92" x2="8" y2="91.46"/><line x1="43.35" y1="8" x2="53.48" y2="31.23"/><line x1="43.35" y1="124.92" x2="53.48" y2="85.79"/>
    <line x1="43.35" y1="8" x2="78.69" y2="41.46"/><line x1="43.35" y1="124.92" x2="78.69" y2="96.02"/><line x1="43.35" y1="8" x2="33.21" y2="47.13"/><line x1="43.35" y1="124.92" x2="33.21" y2="101.7"/>
    <line x1="8" y1="36.9" x2="78.69" y2="96.02"/><line x1="78.69" y1="41.46" x2="8" y2="91.46"/>
    <circle cx="43.35" cy="66.46" r="7.4" fill="#0B0C10" stroke="none"/>
  </g>
</svg>
