<svg xmlns="http://www.w3.org/2000/svg" viewBox="0 0 64 64">
  <rect width="64" height="64" rx="16" fill="#ffffff"/>
  <g transform="translate(6 5.4) scale(0.62)" fill="none" stroke="#0B0C10" stroke-width="2.5" stroke-linecap="round" stroke-linejoin="round">
    <line x1="40" y1="6" x2="72" y2="30"/><line x1="16" y1="28" x2="40" y2="6"/>
    <line x1="68" y1="56" x2="44" y2="80"/><line x1="44" y1="80" x2="12" y2="54"/>
    <line x1="72" y1="30" x2="16" y2="28"/><line x1="68" y1="56" x2="12" y2="54"/>
    <line x1="40" y1="6" x2="68" y2="56"/><line x1="44" y1="80" x2="16" y2="28"/>
    <line x1="40" y1="6" x2="41.73" y2="38.01"/><line x1="44" y1="80" x2="42.27" y2="47.99"/>
    <line x1="72" y1="30" x2="46.59" y2="41.01"/><line x1="12" y1="54" x2="37.31" y2="44.72"/>
    <line x1="16" y1="28" x2="37.67" y2="40.5"/><line x1="68" y1="56" x2="46.6" y2="44.3"/>
    <circle cx="42" cy="43" r="5"/>
  </g>
</svg>
