<svg xmlns="http://www.w3.org/2000/svg" viewBox="0 0 64 64">
  <defs>
    <radialGradient id="bg" cx="50%" cy="40%" r="75%"><stop offset="0%" stop-color="#12244f"/><stop offset="60%" stop-color="#08132e"/><stop offset="100%" stop-color="#03071a"/></radialGradient>
    <radialGradient id="orb" cx="50%" cy="50%" r="50%"><stop offset="0%" stop-color="#3355a0"/><stop offset="30%" stop-color="#6f96ea"/><stop offset="58%" stop-color="#eaf1ff"/><stop offset="80%" stop-color="#bcd2ff"/><stop offset="100%" stop-color="#4066b8" stop-opacity="0"/></radialGradient>
    <filter id="halo" x="-200%" y="-200%" width="500%" height="500%"><feGaussianBlur stdDeviation="3"/></filter>
    <filter id="edge" x="-60%" y="-60%" width="220%" height="220%"><feGaussianBlur stdDeviation="0.5"/></filter>
  </defs>
  <rect width="64" height="64" rx="15" fill="url(#bg)"/>
  <g transform="translate(14.984 5.0) scale(0.3403)">
    <g stroke="#9fc0ff" stroke-width="5.4" fill="none" stroke-linecap="round" stroke-linejoin="round" opacity="0.5" filter="url(#edge)"><line x1="47.2" y1="13.0" x2="76.77" y2="66.37"/><line x1="76.77" y1="66.37" x2="37.79" y2="69.8"/><line x1="47.2" y1="145.67" x2="87.0" y2="100.94"/><line x1="87.0" y1="100.94" x2="62.74" y2="103.11"/><line x1="76.77" y1="66.37" x2="87.0" y2="100.94"/><line x1="76.77" y1="66.37" x2="62.74" y2="103.11"/><line x1="47.2" y1="13.0" x2="37.79" y2="69.8"/><line x1="37.79" y1="69.8" x2="14.86" y2="62.11"/><line x1="47.2" y1="145.67" x2="62.74" y2="103.11"/><line x1="62.74" y1="103.11" x2="13.0" y2="102.47"/><line x1="37.79" y1="69.8" x2="62.74" y2="103.11"/><line x1="37.79" y1="69.8" x2="13.0" y2="102.47"/><line x1="47.2" y1="13.0" x2="14.86" y2="62.11"/><line x1="14.86" y1="62.11" x2="59.43" y2="57.24"/><line x1="47.2" y1="145.67" x2="13.0" y2="102.47"/><line x1="13.0" y1="102.47" x2="25.97" y2="99.92"/><line x1="14.86" y1="62.11" x2="13.0" y2="102.47"/><line x1="14.86" y1="62.11" x2="25.97" y2="99.92"/><line x1="47.2" y1="13.0" x2="59.43" y2="57.24"/><line x1="59.43" y1="57.24" x2="76.77" y2="66.37"/><line x1="47.2" y1="145.67" x2="25.97" y2="99.92"/><line x1="25.97" y1="99.92" x2="87.0" y2="100.94"/><line x1="59.43" y1="57.24" x2="25.97" y2="99.92"/><line x1="59.43" y1="57.24" x2="87.0" y2="100.94"/></g>
    <g stroke="#eef4ff" stroke-width="2.8" fill="none" stroke-linecap="round" stroke-linejoin="round"><line x1="47.2" y1="13.0" x2="76.77" y2="66.37"/><line x1="76.77" y1="66.37" x2="37.79" y2="69.8"/><line x1="47.2" y1="145.67" x2="87.0" y2="100.94"/><line x1="87.0" y1="100.94" x2="62.74" y2="103.11"/><line x1="76.77" y1="66.37" x2="87.0" y2="100.94"/><line x1="76.77" y1="66.37" x2="62.74" y2="103.11"/><line x1="47.2" y1="13.0" x2="37.79" y2="69.8"/><line x1="37.79" y1="69.8" x2="14.86" y2="62.11"/><line x1="47.2" y1="145.67" x2="62.74" y2="103.11"/><line x1="62.74" y1="103.11" x2="13.0" y2="102.47"/><line x1="37.79" y1="69.8" x2="62.74" y2="103.11"/><line x1="37.79" y1="69.8" x2="13.0" y2="102.47"/><line x1="47.2" y1="13.0" x2="14.86" y2="62.11"/><line x1="14.86" y1="62.11" x2="59.43" y2="57.24"/><line x1="47.2" y1="145.67" x2="13.0" y2="102.47"/><line x1="13.0" y1="102.47" x2="25.97" y2="99.92"/><line x1="14.86" y1="62.11" x2="13.0" y2="102.47"/><line x1="14.86" y1="62.11" x2="25.97" y2="99.92"/><line x1="47.2" y1="13.0" x2="59.43" y2="57.24"/><line x1="59.43" y1="57.24" x2="76.77" y2="66.37"/><line x1="47.2" y1="145.67" x2="25.97" y2="99.92"/><line x1="25.97" y1="99.92" x2="87.0" y2="100.94"/><line x1="59.43" y1="57.24" x2="25.97" y2="99.92"/><line x1="59.43" y1="57.24" x2="87.0" y2="100.94"/></g>
    <circle cx="47.2" cy="82.87" r="19" fill="#6f9bff" opacity="0.5" filter="url(#halo)"/>
    <circle cx="47.2" cy="82.87" r="9.5" fill="url(#orb)"/>
  </g>
</svg>